<svg width="20" height="20" viewBox="0 0 20 20" fill="none" xmlns="http://www.w3.org/2000/svg">
<path fill-rule="evenodd" clip-rule="evenodd" d="M4.16602 4.16667C3.70578 4.16667 3.33268 4.53976 3.33268 5V16.6667C3.33268 17.1269 3.70578 17.5 4.16602 17.5H15.8327C16.2929 17.5 16.666 17.1269 16.666 16.6667V5C16.666 4.53976 16.2929 4.16667 15.8327 4.16667H4.16602ZM1.66602 5C1.66602 3.61929 2.7853 2.5 4.16602 2.5H15.8327C17.2134 2.5 18.3327 3.61929 18.3327 5V16.6667C18.3327 18.0474 17.2134 19.1667 15.8327 19.1667H4.16602C2.7853 19.1667 1.66602 18.0474 1.66602 16.6667V5Z" fill="#ACACAC"/>
<path fill-rule="evenodd" clip-rule="evenodd" d="M13.3333 0.833252C13.7936 0.833252 14.1667 1.20635 14.1667 1.66659V4.99992C14.1667 5.46016 13.7936 5.83325 13.3333 5.83325C12.8731 5.83325 12.5 5.46016 12.5 4.99992V1.66659C12.5 1.20635 12.8731 0.833252 13.3333 0.833252Z" fill="#ACACAC"/>
<path fill-rule="evenodd" clip-rule="evenodd" d="M6.66732 0.833252C7.12755 0.833252 7.50065 1.20635 7.50065 1.66659V4.99992C7.50065 5.46016 7.12755 5.83325 6.66732 5.83325C6.20708 5.83325 5.83398 5.46016 5.83398 4.99992V1.66659C5.83398 1.20635 6.20708 0.833252 6.66732 0.833252Z" fill="#ACACAC"/>
<path fill-rule="evenodd" clip-rule="evenodd" d="M1.66602 8.33333C1.66602 7.8731 2.03911 7.5 2.49935 7.5H17.4993C17.9596 7.5 18.3327 7.8731 18.3327 8.33333C18.3327 8.79357 17.9596 9.16667 17.4993 9.16667H2.49935C2.03911 9.16667 1.66602 8.79357 1.66602 8.33333Z" fill="#ACACAC"/>
</svg>
