<svg width="24" height="24" viewBox="0 0 24 24" fill="none" xmlns="http://www.w3.org/2000/svg">
<path d="M17.6672 5.32959H19.9527C21.6436 5.32959 23 6.81607 23 8.6556V18.5407C23 20.3802 21.625 21.8667 19.9527 21.8667H4.0473C2.35642 21.8667 1 20.3802 1 18.5407V8.6556C1 6.81607 2.375 5.32959 4.0473 5.32959H6.33277" stroke="#FDFDFD" stroke-width="1.5" stroke-linecap="round" stroke-linejoin="round"/>
<path d="M6.33301 5.32925L7.24348 3.52688C7.67085 2.67216 8.54416 2.1333 9.51037 2.1333H14.5087C15.4749 2.1333 16.3482 2.67216 16.7756 3.52688L17.686 5.32925" stroke="#FDFDFD" stroke-width="1.5" stroke-linecap="round" stroke-linejoin="round"/>
<path d="M11.9998 17.463C14.3909 17.463 16.3292 15.5247 16.3292 13.1336C16.3292 10.7426 14.3909 8.8042 11.9998 8.8042C9.60875 8.8042 7.67041 10.7426 7.67041 13.1336C7.67041 15.5247 9.60875 17.463 11.9998 17.463Z" stroke="#FDFDFD" stroke-width="1.5" stroke-linecap="round" stroke-linejoin="round"/>
</svg>
