<svg width="64" height="52" viewBox="0 0 64 52" fill="none" xmlns="http://www.w3.org/2000/svg">
<path d="M29.1904 48.1227C41.7662 48.1227 51.9609 37.965 51.9609 25.4349C51.9609 12.9048 41.7662 2.74707 29.1904 2.74707C16.6146 2.74707 6.41992 12.9048 6.41992 25.4349C6.41992 37.965 16.6146 48.1227 29.1904 48.1227Z" fill="#0B3D91"/>
<path d="M27.8471 7.35928C27.9881 7.35928 28.1023 7.24541 28.1023 7.10493C28.1023 6.96446 27.9881 6.85059 27.8471 6.85059C27.7061 6.85059 27.5918 6.96446 27.5918 7.10493C27.5918 7.24541 27.7061 7.35928 27.8471 7.35928Z" fill="white"/>
<path d="M30.4682 7.69815C30.6092 7.69815 30.7234 7.58427 30.7234 7.4438C30.7234 7.30333 30.6092 7.18945 30.4682 7.18945C30.3272 7.18945 30.2129 7.30333 30.2129 7.4438C30.2129 7.58427 30.3272 7.69815 30.4682 7.69815Z" fill="white"/>
<path d="M33.9057 12.3105C34.0466 12.3105 34.1609 12.1966 34.1609 12.0561C34.1609 11.9156 34.0466 11.8018 33.9057 11.8018C33.7647 11.8018 33.6504 11.9156 33.6504 12.0561C33.6504 12.1966 33.7647 12.3105 33.9057 12.3105Z" fill="white"/>
<path d="M15.0482 36.0495C15.1892 36.0495 15.3035 35.9356 15.3035 35.7951C15.3035 35.6546 15.1892 35.5408 15.0482 35.5408C14.9073 35.5408 14.793 35.6546 14.793 35.7951C14.793 35.9356 14.9073 36.0495 15.0482 36.0495Z" fill="white"/>
<path d="M15.7123 38.0844C15.8533 38.0844 15.9676 37.9705 15.9676 37.83C15.9676 37.6896 15.8533 37.5757 15.7123 37.5757C15.5713 37.5757 15.457 37.6896 15.457 37.83C15.457 37.9705 15.5713 38.0844 15.7123 38.0844Z" fill="white"/>
<path d="M12.5466 36.2909C12.6522 36.2909 12.7378 36.2056 12.7378 36.1004C12.7378 35.9952 12.6522 35.9099 12.5466 35.9099C12.4411 35.9099 12.3555 35.9952 12.3555 36.1004C12.3555 36.2056 12.4411 36.2909 12.5466 36.2909Z" fill="white"/>
<path d="M22.9281 40.2886C23.034 40.2886 23.1198 40.2031 23.1198 40.0975C23.1198 39.992 23.034 39.9065 22.9281 39.9065C22.8222 39.9065 22.7363 39.992 22.7363 40.0975C22.7363 40.2031 22.8222 40.2886 22.9281 40.2886Z" fill="white"/>
<path d="M39.2087 36.9183C39.3143 36.9183 39.3999 36.833 39.3999 36.7278C39.3999 36.6226 39.3143 36.5374 39.2087 36.5374C39.1032 36.5374 39.0176 36.6226 39.0176 36.7278C39.0176 36.833 39.1032 36.9183 39.2087 36.9183Z" fill="white"/>
<path d="M43.9417 31.7981C44.0476 31.7981 44.1335 31.7126 44.1335 31.6071C44.1335 31.5015 44.0476 31.416 43.9417 31.416C43.8358 31.416 43.75 31.5015 43.75 31.6071C43.75 31.7126 43.8358 31.7981 43.9417 31.7981Z" fill="white"/>
<path d="M20.7498 13.7342C20.8553 13.7342 20.9409 13.6489 20.9409 13.5437C20.9409 13.4386 20.8553 13.3533 20.7498 13.3533C20.6442 13.3533 20.5586 13.4386 20.5586 13.5437C20.5586 13.6489 20.6442 13.7342 20.7498 13.7342Z" fill="white"/>
<path d="M25.9587 9.92344C26.0643 9.92344 26.1499 9.83816 26.1499 9.73296C26.1499 9.62776 26.0643 9.54248 25.9587 9.54248C25.8532 9.54248 25.7676 9.62776 25.7676 9.73296C25.7676 9.83816 25.8532 9.92344 25.9587 9.92344Z" fill="white"/>
<path d="M25.3923 9.55039C25.4979 9.55039 25.5835 9.46511 25.5835 9.35991C25.5835 9.25471 25.4979 9.16943 25.3923 9.16943C25.2868 9.16943 25.2012 9.25471 25.2012 9.35991C25.2012 9.46511 25.2868 9.55039 25.3923 9.55039Z" fill="white"/>
<path d="M24.8806 9.17734C24.9862 9.17734 25.0718 9.09206 25.0718 8.98686C25.0718 8.88167 24.9862 8.79639 24.8806 8.79639C24.775 8.79639 24.6895 8.88167 24.6895 8.98686C24.6895 9.09206 24.775 9.17734 24.8806 9.17734Z" fill="white"/>
<path d="M21.5662 14.7184C21.6718 14.7184 21.7573 14.6331 21.7573 14.5279C21.7573 14.4227 21.6718 14.3374 21.5662 14.3374C21.4606 14.3374 21.375 14.4227 21.375 14.5279C21.375 14.6331 21.4606 14.7184 21.5662 14.7184Z" fill="white"/>
<path d="M29.238 4.80259C29.3436 4.80259 29.4292 4.71731 29.4292 4.61211C29.4292 4.50691 29.3436 4.42163 29.238 4.42163C29.1325 4.42163 29.0469 4.50691 29.0469 4.61211C29.0469 4.71731 29.1325 4.80259 29.238 4.80259Z" fill="white"/>
<path d="M30.4978 10.2965C30.6034 10.2965 30.689 10.2112 30.689 10.106C30.689 10.0008 30.6034 9.91553 30.4978 9.91553C30.3922 9.91553 30.3066 10.0008 30.3066 10.106C30.3066 10.2112 30.3922 10.2965 30.4978 10.2965Z" fill="white"/>
<path d="M28.5095 9.22373C28.6151 9.22373 28.7007 9.13845 28.7007 9.03325C28.7007 8.92805 28.6151 8.84277 28.5095 8.84277C28.4039 8.84277 28.3184 8.92805 28.3184 9.03325C28.3184 9.13845 28.4039 9.22373 28.5095 9.22373Z" fill="white"/>
<path d="M25.1072 10.6827C25.2128 10.6827 25.2984 10.5974 25.2984 10.4922C25.2984 10.387 25.2128 10.3018 25.1072 10.3018C25.0016 10.3018 24.916 10.387 24.916 10.4922C24.916 10.5974 25.0016 10.6827 25.1072 10.6827Z" fill="white"/>
<path d="M40.117 41.9503C40.2225 41.9503 40.3081 41.865 40.3081 41.7598C40.3081 41.6546 40.2225 41.5693 40.117 41.5693C40.0114 41.5693 39.9258 41.6546 39.9258 41.7598C39.9258 41.865 40.0114 41.9503 40.117 41.9503Z" fill="white"/>
<path d="M14.7249 37.2749C14.8308 37.2749 14.9167 37.1894 14.9167 37.0839C14.9167 36.9784 14.8308 36.8928 14.7249 36.8928C14.619 36.8928 14.5332 36.9784 14.5332 37.0839C14.5332 37.1894 14.619 37.2749 14.7249 37.2749Z" fill="white"/>
<path d="M28.0335 39.7336C28.1394 39.7336 28.2253 39.6481 28.2253 39.5426C28.2253 39.4371 28.1394 39.3516 28.0335 39.3516C27.9276 39.3516 27.8418 39.4371 27.8418 39.5426C27.8418 39.6481 27.9276 39.7336 28.0335 39.7336Z" fill="white"/>
<path d="M18.6859 37.1223C18.7918 37.1223 18.8776 37.0368 18.8776 36.9313C18.8776 36.8258 18.7918 36.7402 18.6859 36.7402C18.58 36.7402 18.4941 36.8258 18.4941 36.9313C18.4941 37.0368 18.58 37.1223 18.6859 37.1223Z" fill="white"/>
<path d="M20.3421 39.8145C20.448 39.8145 20.5339 39.7289 20.5339 39.6234C20.5339 39.5179 20.448 39.4324 20.3421 39.4324C20.2362 39.4324 20.1504 39.5179 20.1504 39.6234C20.1504 39.7289 20.2362 39.8145 20.3421 39.8145Z" fill="white"/>
<path d="M32.5271 38.1183C32.6327 38.1183 32.7183 38.033 32.7183 37.9278C32.7183 37.8226 32.6327 37.7373 32.5271 37.7373C32.4215 37.7373 32.3359 37.8226 32.3359 37.9278C32.3359 38.033 32.4215 38.1183 32.5271 38.1183Z" fill="white"/>
<path d="M39.2439 34.3409C39.3495 34.3409 39.4351 34.2556 39.4351 34.1504C39.4351 34.0452 39.3495 33.96 39.2439 33.96C39.1383 33.96 39.0527 34.0452 39.0527 34.1504C39.0527 34.2556 39.1383 34.3409 39.2439 34.3409Z" fill="white"/>
<path d="M44.3377 36.6595C44.4432 36.6595 44.5288 36.5742 44.5288 36.469C44.5288 36.3638 44.4432 36.2786 44.3377 36.2786C44.2321 36.2786 44.1465 36.3638 44.1465 36.469C44.1465 36.5742 44.2321 36.6595 44.3377 36.6595Z" fill="white"/>
<path d="M46.072 37.7662C46.1776 37.7662 46.2632 37.6809 46.2632 37.5757C46.2632 37.4705 46.1776 37.3853 46.072 37.3853C45.9664 37.3853 45.8809 37.4705 45.8809 37.5757C45.8809 37.6809 45.9664 37.7662 46.072 37.7662Z" fill="white"/>
<path d="M46.3591 34.7479C46.4647 34.7479 46.5503 34.6626 46.5503 34.5574C46.5503 34.4522 46.4647 34.3669 46.3591 34.3669C46.2536 34.3669 46.168 34.4522 46.168 34.5574C46.168 34.6626 46.2536 34.7479 46.3591 34.7479Z" fill="white"/>
<path d="M21.0349 30.4747C21.1405 30.4747 21.2261 30.3894 21.2261 30.2842C21.2261 30.179 21.1405 30.0938 21.0349 30.0938C20.9293 30.0938 20.8438 30.179 20.8438 30.2842C20.8438 30.3894 20.9293 30.4747 21.0349 30.4747Z" fill="white"/>
<path d="M21.1068 34.9135C21.2478 34.9135 21.3621 34.7996 21.3621 34.6591C21.3621 34.5187 21.2478 34.4048 21.1068 34.4048C20.9659 34.4048 20.8516 34.5187 20.8516 34.6591C20.8516 34.7996 20.9659 34.9135 21.1068 34.9135Z" fill="white"/>
<path d="M22.6381 38.1352C22.7791 38.1352 22.8934 38.0213 22.8934 37.8808C22.8934 37.7403 22.7791 37.6265 22.6381 37.6265C22.4971 37.6265 22.3828 37.7403 22.3828 37.8808C22.3828 38.0213 22.4971 38.1352 22.6381 38.1352Z" fill="white"/>
<path d="M40.9838 34.7777C41.1248 34.7777 41.2391 34.6639 41.2391 34.5234C41.2391 34.3829 41.1248 34.269 40.9838 34.269C40.8428 34.269 40.7285 34.3829 40.7285 34.5234C40.7285 34.6639 40.8428 34.7777 40.9838 34.7777Z" fill="white"/>
<path d="M47.5873 34.4047C47.7283 34.4047 47.8426 34.2908 47.8426 34.1503C47.8426 34.0099 47.7283 33.896 47.5873 33.896C47.4463 33.896 47.332 34.0099 47.332 34.1503C47.332 34.2908 47.4463 34.4047 47.5873 34.4047Z" fill="white"/>
<path d="M44.3197 33.0143C44.4607 33.0143 44.575 32.9004 44.575 32.76C44.575 32.6195 44.4607 32.5056 44.3197 32.5056C44.1787 32.5056 44.0645 32.6195 44.0645 32.76C44.0645 32.9004 44.1787 33.0143 44.3197 33.0143Z" fill="white"/>
<path d="M40.9838 33.1501C41.1248 33.1501 41.2391 33.0362 41.2391 32.8957C41.2391 32.7552 41.1248 32.6414 40.9838 32.6414C40.8428 32.6414 40.7285 32.7552 40.7285 32.8957C40.7285 33.0362 40.8428 33.1501 40.9838 33.1501Z" fill="white"/>
<path d="M34.1036 6.9455L34.7384 6.88502L34.1047 6.84942C34.0849 6.72733 33.9867 6.63181 33.8631 6.61598L33.8024 5.98633L33.7661 6.62107C33.6515 6.6465 33.5635 6.74202 33.5494 6.86072L32.9004 6.9195L33.5539 6.95455C33.5777 7.06363 33.6662 7.14898 33.7774 7.16933L33.8364 7.8182L33.871 7.17046C33.9884 7.15068 34.0815 7.06081 34.1036 6.9455Z" fill="white"/>
<path d="M23.3907 13.987L24.0255 13.9265L23.3918 13.8909C23.3725 13.7688 23.2738 13.6733 23.1502 13.6575L23.0895 13.0278L23.0537 13.6626C22.9386 13.688 22.8506 13.7835 22.8365 13.9022L22.1875 13.961L22.841 13.996C22.8648 14.1051 22.9533 14.1905 23.0645 14.2108L23.1235 14.8597L23.1587 14.212C23.2761 14.1927 23.3691 14.1023 23.3907 13.987Z" fill="white"/>
<path d="M47.1225 32.6039L47.7573 32.5435L47.1237 32.5079C47.1044 32.3858 47.0057 32.2903 46.882 32.2744L46.8213 31.6448L46.7856 32.2795C46.671 32.305 46.5831 32.4005 46.5689 32.5192L45.9199 32.578L46.5734 32.613C46.5972 32.7221 46.6857 32.8074 46.7969 32.8278L46.8559 33.4766L46.8911 32.8289C47.0074 32.8097 47.1004 32.7198 47.1225 32.6039Z" fill="white"/>
<path d="M21.2462 42.3382L21.8809 42.2778L21.2473 42.2422C21.2274 42.1201 21.1293 42.0246 21.0056 42.0087L20.9449 41.3796L20.9092 42.0138C20.794 42.0392 20.7061 42.1348 20.6919 42.2535L20.043 42.3122L20.6965 42.3473C20.7203 42.4564 20.8088 42.5423 20.92 42.5621L20.979 43.2109L21.0141 42.5632C21.131 42.544 21.2246 42.4536 21.2462 42.3382Z" fill="white"/>
<path d="M45.105 37.5903L45.7397 37.5298L45.1061 37.4942C45.0868 37.3721 44.9881 37.2766 44.8644 37.2608L44.8037 36.6311L44.768 37.2653C44.6534 37.2907 44.5655 37.3862 44.5513 37.5049L43.9023 37.5637L44.5558 37.5988C44.5797 37.7078 44.6682 37.7932 44.7794 37.8135L44.8383 38.4624L44.8735 37.8147C44.9898 37.796 45.0834 37.7056 45.105 37.5903Z" fill="white"/>
<path d="M34.5905 20.0002C31.9431 21.0255 29.3608 21.9406 27.1819 22.62C22.7543 24.0014 10.6401 27.7409 3.32227 32.4548L3.93492 32.6922C8.39371 30.1826 11.2919 29.3941 14.0778 28.5209C17.1071 27.5713 26.9 25.2878 31.3344 24.0443C32.8325 23.6244 34.5871 23.0744 36.4455 22.4052C36.0133 21.8044 35.5572 21.2019 35.0772 20.6005C34.9167 20.3976 34.7539 20.1975 34.5905 20.0002ZM37.8251 24.4422C37.1841 24.8735 36.6469 25.2177 36.2708 25.4348C34.0925 26.6896 23.4725 33.913 21.0565 35.5748C18.6404 37.2365 11.9347 43.5443 9.96053 45.3756L9.89246 46.1212C16.2573 40.4238 18.2541 39.0186 20.7842 37.1009C23.9155 34.7269 30.3933 30.3352 32.5948 28.9278C34.6994 27.5826 36.5976 26.3453 38.3011 25.2132C38.2733 25.1669 38.2455 25.1205 38.2177 25.0736C38.0895 24.8639 37.9584 24.6536 37.8251 24.4422ZM47.7746 13.9722C44.6739 15.7831 39.7868 17.9688 35.0455 19.8233C35.1589 19.9618 35.2718 20.1014 35.3841 20.2421C35.914 20.9068 36.4138 21.576 36.884 22.2458C40.611 20.878 44.7005 19.0422 47.9453 16.8203C46.3995 18.2797 41.2889 22.0853 38.1729 24.2066C38.3334 24.4671 38.4889 24.7277 38.6392 24.9871C43.3601 21.8394 46.5368 19.5226 48.3878 17.9733C50.9406 15.8368 56.7608 11.0551 58.9732 4.64551C55.0925 9.56346 50.5043 12.3777 47.7746 13.9722Z" fill="#FC3D21"/>
<path d="M26.2607 31.0525C25.7587 30.4229 25.0643 29.5796 24.543 28.9256C23.8458 28.0512 23.2008 27.1678 22.6097 26.2855C22.4168 26.3335 22.2245 26.3816 22.0322 26.4296C22.7459 27.5391 23.5384 28.6469 24.4017 29.7299C25.0326 30.5212 25.6061 31.1582 25.8999 31.5544C25.9595 31.6347 26.0775 31.8122 26.2369 32.0484C26.4207 31.9241 26.6062 31.7986 26.7934 31.672C26.6124 31.4759 26.4337 31.2696 26.2607 31.0525ZM29.9253 34.3669C29.5129 33.9781 28.5128 33.3286 27.4718 32.3542C27.2421 32.5113 27.0101 32.6707 26.7775 32.8312C27.4497 33.7752 28.3653 34.9344 29.0823 35.2724C30.1624 35.7823 30.4534 34.8655 29.9253 34.3669ZM35.3842 20.2422C29.4324 12.7779 22.1616 8.67725 19.0268 11.1591C16.5921 13.0865 17.5916 18.7195 20.9476 24.6367C21.1212 24.5774 21.2931 24.5192 21.4633 24.4615C18.076 18.6963 17.1491 13.3386 19.4455 11.5203C22.3312 9.23568 29.299 13.3522 35.0785 20.5999C36.2748 22.1 37.3266 23.6058 38.2172 25.0736C41.6277 30.6976 42.6743 35.7834 40.3178 37.8594C39.5968 38.4947 37.3935 38.744 34.5072 37.4496C34.4669 37.5 34.5316 37.6362 34.5821 37.6695C37.0736 38.6677 39.4601 39.0481 40.665 38.0946C43.5604 35.802 41.3361 27.7064 35.3842 20.2422Z" fill="white"/>
<path d="M9.85742 21.1277H13.6695L16.869 26.5368C16.869 26.5368 16.869 22.6199 16.869 22.3146C16.869 21.8399 16.2648 21.2209 16.0521 21.1277C16.3074 21.1277 18.5367 21.1277 18.6899 21.1277C18.5282 21.1701 18.0092 21.7975 18.0092 22.3146C18.0092 22.569 18.0092 28.2494 18.0092 28.5207C18.0092 28.9023 18.5623 29.4279 18.8261 29.6314H15.1501L11.8996 24.1968C11.8996 24.1968 11.8996 28.2494 11.8996 28.4699C11.8996 28.8938 12.3166 29.3007 12.7505 29.6483H9.94251C10.3424 29.4788 10.7254 28.9446 10.7594 28.5207C10.7934 28.0968 10.7594 22.6283 10.7594 22.3909C10.7594 21.8738 10.2574 21.4499 9.85742 21.1277Z" fill="white"/>
<path d="M44.7278 29.6314H49.7993C49.5185 29.5636 49.2037 29.2329 49.0335 28.792C48.8633 28.3512 46.1744 21.1277 46.1744 21.1277H44.2462C43.6994 21.5199 43.1134 21.9337 42.4877 22.3695C42.486 22.3853 42.4843 22.4011 42.4814 22.4164C42.3975 22.9251 40.8885 28.3704 40.7966 28.6394C40.669 29.0125 40.0138 29.4279 39.75 29.6483H42.4814C42.2091 29.3431 41.9879 29.0464 42.039 28.7073C42.09 28.3681 42.2432 27.6899 42.2432 27.6899H45.0682C45.1959 28.029 45.2912 28.3336 45.3405 28.6225C45.4001 28.9701 45.0427 29.3601 44.7278 29.6314ZM42.4985 26.6046L43.4515 23.5016L44.7108 26.6046H42.4985ZM42.069 21.4374C42.2091 21.3346 42.3498 21.2311 42.4899 21.1277H41.7496C41.8234 21.1955 41.9454 21.3023 42.069 21.4374Z" fill="white"/>
<path d="M22.6737 28.7073C22.7248 28.3681 22.8779 27.6899 22.8779 27.6899H25.703C25.8306 28.029 25.9259 28.3336 25.9753 28.6225C26.0348 28.9701 25.6775 29.3601 25.3626 29.6314H29.8276C29.9207 29.5692 30.0131 29.507 30.1056 29.4454C29.9326 29.2928 29.7732 29.0639 29.6682 28.792C29.4981 28.3512 26.8092 21.1277 26.8092 21.1277H22.3844C22.5971 21.3227 23.2098 21.8483 23.1162 22.4164C23.0328 22.9251 21.5233 28.3704 21.4314 28.6394C21.3038 29.0125 20.6485 29.4279 20.3848 29.6483H23.1162C22.8439 29.3431 22.6227 29.0464 22.6737 28.7073ZM24.0862 23.5016L25.3456 26.6046H23.1332L24.0862 23.5016Z" fill="white"/>
<path d="M38.0957 25.3489C37.263 25.9016 36.3843 26.4787 35.4585 27.0812C35.8737 27.2819 36.2044 27.534 36.2362 27.8595C36.2952 28.4711 35.0619 28.7667 33.9472 28.6395C33.7243 28.6141 33.5053 28.5559 33.2966 28.4779C33.0651 28.6265 32.8314 28.7763 32.5943 28.9278C32.3532 29.0821 32.0605 29.272 31.7264 29.4913V30.3691C31.9476 29.9367 32.4315 29.5495 32.807 29.5298C32.9687 29.5213 33.5303 30.0385 35.8448 29.9113C36.968 29.8497 39.1378 28.6565 39.1038 27.283C39.0834 26.4714 38.6579 25.8383 38.0957 25.3489ZM31.7258 27.4695V28.3637C31.9306 28.2275 32.1325 28.0935 32.3305 27.963C32.0191 27.7471 31.7984 27.5453 31.7258 27.4695ZM37.3044 24.7876C37.0888 24.6604 36.8704 24.5491 36.6611 24.4507C35.5719 23.942 34.4317 23.8488 34.1934 23.162C34.0255 22.6776 34.4998 22.2294 35.657 22.2464C36.8143 22.2633 37.8864 22.9501 38.1757 23.1959V21.0085C38.0906 21.0933 37.7174 21.5201 37.3759 21.4494C36.7207 21.3138 35.606 21.1369 34.3296 21.1442C32.866 21.1527 31.6067 22.2797 31.5641 23.7046C31.5046 25.697 33.1043 26.2396 34.0062 26.5533C34.0993 26.5855 34.2054 26.62 34.3205 26.6568C35.1856 26.0961 35.8697 25.6642 36.2702 25.4342C36.5391 25.2799 36.8914 25.0583 37.3044 24.7876Z" fill="white"/>
</svg>
