<svg width="115" height="96" viewBox="0 0 115 96" fill="none" xmlns="http://www.w3.org/2000/svg">
<path d="M52.3239 88.8417C75.5003 88.8417 94.2885 70.0891 94.2885 46.9565C94.2885 23.8239 75.5003 5.07129 52.3239 5.07129C29.1475 5.07129 10.3594 23.8239 10.3594 46.9565C10.3594 70.0891 29.1475 88.8417 52.3239 88.8417Z" fill="#0B3D91"/>
<path d="M49.8455 13.5866C50.1053 13.5866 50.3159 13.3764 50.3159 13.117C50.3159 12.8577 50.1053 12.6475 49.8455 12.6475C49.5856 12.6475 49.375 12.8577 49.375 13.117C49.375 13.3764 49.5856 13.5866 49.8455 13.5866Z" fill="white"/>
<path d="M54.6755 14.2135C54.9354 14.2135 55.146 14.0033 55.146 13.744C55.146 13.4846 54.9354 13.2744 54.6755 13.2744C54.4157 13.2744 54.2051 13.4846 54.2051 13.744C54.2051 14.0033 54.4157 14.2135 54.6755 14.2135Z" fill="white"/>
<path d="M61.0115 22.7272C61.2713 22.7272 61.4819 22.517 61.4819 22.2577C61.4819 21.9983 61.2713 21.7881 61.0115 21.7881C60.7516 21.7881 60.541 21.9983 60.541 22.2577C60.541 22.517 60.7516 22.7272 61.0115 22.7272Z" fill="white"/>
<path d="M26.2615 66.5534C26.5213 66.5534 26.7319 66.3432 26.7319 66.0838C26.7319 65.8245 26.5213 65.6143 26.2615 65.6143C26.0016 65.6143 25.791 65.8245 25.791 66.0838C25.791 66.3432 26.0016 66.5534 26.2615 66.5534Z" fill="white"/>
<path d="M27.4841 70.3112C27.744 70.3112 27.9546 70.101 27.9546 69.8416C27.9546 69.5823 27.744 69.3721 27.4841 69.3721C27.2243 69.3721 27.0137 69.5823 27.0137 69.8416C27.0137 70.101 27.2243 70.3112 27.4841 70.3112Z" fill="white"/>
<path d="M21.6511 66.9992C21.8457 66.9992 22.0035 66.8418 22.0035 66.6476C22.0035 66.4533 21.8457 66.2959 21.6511 66.2959C21.4566 66.2959 21.2988 66.4533 21.2988 66.6476C21.2988 66.8418 21.4566 66.9992 21.6511 66.9992Z" fill="white"/>
<path d="M40.7811 74.3802C40.9763 74.3802 41.1345 74.2223 41.1345 74.0275C41.1345 73.8327 40.9763 73.6748 40.7811 73.6748C40.5859 73.6748 40.4277 73.8327 40.4277 74.0275C40.4277 74.2223 40.5859 74.3802 40.7811 74.3802Z" fill="white"/>
<path d="M70.7879 68.1584C70.9824 68.1584 71.1402 68.0009 71.1402 67.8067C71.1402 67.6125 70.9824 67.4551 70.7879 67.4551C70.5933 67.4551 70.4355 67.6125 70.4355 67.8067C70.4355 68.0009 70.5933 68.1584 70.7879 68.1584Z" fill="white"/>
<path d="M79.5077 58.7044C79.7028 58.7044 79.861 58.5465 79.861 58.3517C79.861 58.1569 79.7028 57.999 79.5077 57.999C79.3125 57.999 79.1543 58.1569 79.1543 58.3517C79.1543 58.5465 79.3125 58.7044 79.5077 58.7044Z" fill="white"/>
<path d="M36.7683 25.3566C36.9629 25.3566 37.1206 25.1992 37.1206 25.005C37.1206 24.8108 36.9629 24.6533 36.7683 24.6533C36.5738 24.6533 36.416 24.8108 36.416 25.005C36.416 25.1992 36.5738 25.3566 36.7683 25.3566Z" fill="white"/>
<path d="M46.364 18.3205C46.5586 18.3205 46.7164 18.1631 46.7164 17.9688C46.7164 17.7746 46.5586 17.6172 46.364 17.6172C46.1695 17.6172 46.0117 17.7746 46.0117 17.9688C46.0117 18.1631 46.1695 18.3205 46.364 18.3205Z" fill="white"/>
<path d="M45.323 17.632C45.5176 17.632 45.6753 17.4746 45.6753 17.2804C45.6753 17.0862 45.5176 16.9287 45.323 16.9287C45.1284 16.9287 44.9707 17.0862 44.9707 17.2804C44.9707 17.4746 45.1284 17.632 45.323 17.632Z" fill="white"/>
<path d="M44.3816 16.9445C44.5762 16.9445 44.7339 16.7871 44.7339 16.5929C44.7339 16.3987 44.5762 16.2412 44.3816 16.2412C44.187 16.2412 44.0293 16.3987 44.0293 16.5929C44.0293 16.7871 44.187 16.9445 44.3816 16.9445Z" fill="white"/>
<path d="M38.2742 27.173C38.4688 27.173 38.6265 27.0156 38.6265 26.8214C38.6265 26.6272 38.4688 26.4697 38.2742 26.4697C38.0796 26.4697 37.9219 26.6272 37.9219 26.8214C37.9219 27.0156 38.0796 27.173 38.2742 27.173Z" fill="white"/>
<path d="M52.409 8.86737C52.6035 8.86737 52.7613 8.70993 52.7613 8.51571C52.7613 8.3215 52.6035 8.16406 52.409 8.16406C52.2144 8.16406 52.0566 8.3215 52.0566 8.51571C52.0566 8.70993 52.2144 8.86737 52.409 8.86737Z" fill="white"/>
<path d="M54.7332 19.0099C54.9278 19.0099 55.0855 18.8525 55.0855 18.6583C55.0855 18.4641 54.9278 18.3066 54.7332 18.3066C54.5386 18.3066 54.3809 18.4641 54.3809 18.6583C54.3809 18.8525 54.5386 19.0099 54.7332 19.0099Z" fill="white"/>
<path d="M51.0711 17.0295C51.2656 17.0295 51.4234 16.872 51.4234 16.6778C51.4234 16.4836 51.2656 16.3262 51.0711 16.3262C50.8765 16.3262 50.7188 16.4836 50.7188 16.6778C50.7188 16.872 50.8765 17.0295 51.0711 17.0295Z" fill="white"/>
<path d="M44.7976 19.7228C44.9922 19.7228 45.1499 19.5654 45.1499 19.3712C45.1499 19.177 44.9922 19.0195 44.7976 19.0195C44.603 19.0195 44.4453 19.177 44.4453 19.3712C44.4453 19.5654 44.603 19.7228 44.7976 19.7228Z" fill="white"/>
<path d="M72.4597 77.4474C72.6543 77.4474 72.8121 77.29 72.8121 77.0958C72.8121 76.9016 72.6543 76.7441 72.4597 76.7441C72.2652 76.7441 72.1074 76.9016 72.1074 77.0958C72.1074 77.29 72.2652 77.4474 72.4597 77.4474Z" fill="white"/>
<path d="M25.6659 68.8167C25.861 68.8167 26.0192 68.6588 26.0192 68.464C26.0192 68.2692 25.861 68.1113 25.6659 68.1113C25.4707 68.1113 25.3125 68.2692 25.3125 68.464C25.3125 68.6588 25.4707 68.8167 25.6659 68.8167Z" fill="white"/>
<path d="M50.1913 73.3548C50.3864 73.3548 50.5446 73.1969 50.5446 73.0021C50.5446 72.8073 50.3864 72.6494 50.1913 72.6494C49.9961 72.6494 49.8379 72.8073 49.8379 73.0021C49.8379 73.1969 49.9961 73.3548 50.1913 73.3548Z" fill="white"/>
<path d="M32.9627 68.5345C33.1579 68.5345 33.3161 68.3766 33.3161 68.1818C33.3161 67.987 33.1579 67.8291 32.9627 67.8291C32.7676 67.8291 32.6094 67.987 32.6094 68.1818C32.6094 68.3766 32.7676 68.5345 32.9627 68.5345Z" fill="white"/>
<path d="M36.0155 73.5052C36.2106 73.5052 36.3688 73.3473 36.3688 73.1525C36.3688 72.9577 36.2106 72.7998 36.0155 72.7998C35.8203 72.7998 35.6621 72.9577 35.6621 73.1525C35.6621 73.3473 35.8203 73.5052 36.0155 73.5052Z" fill="white"/>
<path d="M58.4715 70.3732C58.666 70.3732 58.8238 70.2158 58.8238 70.0216C58.8238 69.8274 58.666 69.6699 58.4715 69.6699C58.2769 69.6699 58.1191 69.8274 58.1191 70.0216C58.1191 70.2158 58.2769 70.3732 58.4715 70.3732Z" fill="white"/>
<path d="M70.8523 63.3996C71.0469 63.3996 71.2046 63.2422 71.2046 63.0479C71.2046 62.8537 71.0469 62.6963 70.8523 62.6963C70.6577 62.6963 70.5 62.8537 70.5 63.0479C70.5 63.2422 70.6577 63.3996 70.8523 63.3996Z" fill="white"/>
<path d="M80.2371 67.6799C80.4317 67.6799 80.5894 67.5224 80.5894 67.3282C80.5894 67.134 80.4317 66.9766 80.2371 66.9766C80.0425 66.9766 79.8848 67.134 79.8848 67.3282C79.8848 67.5224 80.0425 67.6799 80.2371 67.6799Z" fill="white"/>
<path d="M83.4363 69.7238C83.6309 69.7238 83.7886 69.5664 83.7886 69.3722C83.7886 69.178 83.6309 69.0205 83.4363 69.0205C83.2417 69.0205 83.084 69.178 83.084 69.3722C83.084 69.5664 83.2417 69.7238 83.4363 69.7238Z" fill="white"/>
<path d="M83.9617 64.1506C84.1563 64.1506 84.314 63.9931 84.314 63.7989C84.314 63.6047 84.1563 63.4473 83.9617 63.4473C83.7671 63.4473 83.6094 63.6047 83.6094 63.7989C83.6094 63.9931 83.7671 64.1506 83.9617 64.1506Z" fill="white"/>
<path d="M37.2918 56.2619C37.4864 56.2619 37.6441 56.1045 37.6441 55.9102C37.6441 55.716 37.4864 55.5586 37.2918 55.5586C37.0972 55.5586 36.9395 55.716 36.9395 55.9102C36.9395 56.1045 37.0972 56.2619 37.2918 56.2619Z" fill="white"/>
<path d="M37.4255 64.4567C37.6854 64.4567 37.896 64.2465 37.896 63.9871C37.896 63.7278 37.6854 63.5176 37.4255 63.5176C37.1657 63.5176 36.9551 63.7278 36.9551 63.9871C36.9551 64.2465 37.1657 64.4567 37.4255 64.4567Z" fill="white"/>
<path d="M40.2478 70.405C40.5076 70.405 40.7183 70.1947 40.7183 69.9354C40.7183 69.676 40.5076 69.4658 40.2478 69.4658C39.988 69.4658 39.7773 69.676 39.7773 69.9354C39.7773 70.1947 39.988 70.405 40.2478 70.405Z" fill="white"/>
<path d="M74.0603 64.2057C74.3201 64.2057 74.5308 63.9955 74.5308 63.7362C74.5308 63.4768 74.3201 63.2666 74.0603 63.2666C73.8005 63.2666 73.5898 63.4768 73.5898 63.7362C73.5898 63.9955 73.8005 64.2057 74.0603 64.2057Z" fill="white"/>
<path d="M86.2283 63.5182C86.4881 63.5182 86.6987 63.308 86.6987 63.0487C86.6987 62.7893 86.4881 62.5791 86.2283 62.5791C85.9684 62.5791 85.7578 62.7893 85.7578 63.0487C85.7578 63.308 85.9684 63.5182 86.2283 63.5182Z" fill="white"/>
<path d="M80.2068 60.9499C80.4666 60.9499 80.6772 60.7396 80.6772 60.4803C80.6772 60.221 80.4666 60.0107 80.2068 60.0107C79.947 60.0107 79.7363 60.221 79.7363 60.4803C79.7363 60.7396 79.947 60.9499 80.2068 60.9499Z" fill="white"/>
<path d="M74.0603 61.2009C74.3201 61.2009 74.5308 60.9906 74.5308 60.7313C74.5308 60.472 74.3201 60.2617 74.0603 60.2617C73.8005 60.2617 73.5898 60.472 73.5898 60.7313C73.5898 60.9906 73.8005 61.2009 74.0603 61.2009Z" fill="white"/>
<path d="M61.3795 12.8235L62.5494 12.7119L61.3816 12.6461C61.345 12.4207 61.1642 12.2444 60.9362 12.2152L60.8244 11.0527L60.7575 12.2246C60.5463 12.2715 60.3842 12.4479 60.3581 12.667L59.1621 12.7755L60.3665 12.8402C60.4104 13.0416 60.5735 13.1992 60.7784 13.2367L60.8871 14.4346L60.9509 13.2388C61.1673 13.2023 61.3387 13.0364 61.3795 12.8235Z" fill="white"/>
<path d="M41.6354 25.8225L42.8052 25.7109L41.6375 25.6451C41.6019 25.4198 41.42 25.2434 41.1921 25.2142L41.0802 24.0518L41.0144 25.2236C40.8022 25.2705 40.6401 25.4469 40.614 25.666L39.418 25.7745L40.6223 25.8392C40.6662 26.0406 40.8293 26.1982 41.0342 26.2358L41.143 27.4337L41.2078 26.2378C41.4242 26.2024 41.5957 26.0354 41.6354 25.8225Z" fill="white"/>
<path d="M85.3707 60.1927L86.5405 60.081L85.3728 60.0153C85.3372 59.7899 85.1553 59.6135 84.9274 59.5843L84.8155 58.4219L84.7497 59.5937C84.5385 59.6407 84.3764 59.817 84.3503 60.0361L83.1543 60.1447L84.3587 60.2094C84.4026 60.4107 84.5657 60.5683 84.7706 60.6059L84.8793 61.8038L84.9441 60.608C85.1584 60.5725 85.3299 60.4066 85.3707 60.1927Z" fill="white"/>
<path d="M37.6822 78.1633L38.8521 78.0516L37.6843 77.9859C37.6478 77.7605 37.4669 77.5842 37.239 77.5549L37.1271 76.3936L37.0613 77.5643C36.849 77.6113 36.687 77.7876 36.6608 78.0068L35.4648 78.1153L36.6692 78.18C36.7131 78.3814 36.8762 78.54 37.0811 78.5765L37.1898 79.7744L37.2547 78.5786C37.47 78.5431 37.6425 78.3762 37.6822 78.1633Z" fill="white"/>
<path d="M81.6539 69.3987L82.8237 69.2871L81.656 69.2213C81.6204 68.9959 81.4385 68.8196 81.2106 68.7904L81.0987 67.6279L81.0329 68.7987C80.8217 68.8457 80.6596 69.022 80.6335 69.2412L79.4375 69.3497L80.6419 69.4144C80.6858 69.6158 80.8489 69.7733 81.0538 69.8109L81.1625 71.0088L81.2273 69.813C81.4416 69.7785 81.6141 69.6116 81.6539 69.3987Z" fill="white"/>
<path d="M62.2759 36.9253C57.3967 38.8181 52.6378 40.5075 48.6222 41.7618C40.4624 44.312 18.1368 51.2157 4.65039 59.9183L5.77948 60.3566C13.9968 55.7235 19.338 54.2679 24.4722 52.6557C30.0549 50.9026 48.1026 46.687 56.2749 44.3913C59.036 43.616 62.2696 42.6007 65.6945 41.3653C64.8979 40.256 64.0573 39.1437 63.1728 38.0334C62.877 37.6588 62.5769 37.2894 62.2759 36.9253ZM68.237 45.126C67.0557 45.9221 66.0656 46.5576 65.3725 46.9583C61.3579 49.2748 41.786 62.6105 37.3334 65.6783C32.8808 68.7461 20.5225 80.3913 16.8843 83.7722L16.7588 85.1486C28.4888 74.6303 32.1688 72.0362 36.8316 68.4957C42.6025 64.1131 54.5405 56.0053 58.5979 53.407C62.4766 50.9235 65.9747 48.6393 69.1142 46.5493C69.0629 46.4637 69.0117 46.3781 68.9605 46.2915C68.7242 45.9044 68.4827 45.5162 68.237 45.126ZM86.5733 25.7966C80.8588 29.1399 71.8522 33.175 63.1143 36.5986C63.3234 36.8543 63.5314 37.112 63.7384 37.3719C64.7149 38.599 65.6359 39.8345 66.5026 41.071C73.3713 38.5458 80.9079 35.1566 86.8879 31.0546C84.0391 33.7489 74.6206 40.7746 68.8779 44.6908C69.1738 45.1719 69.4602 45.6529 69.7373 46.1319C78.4375 40.3207 84.2921 36.0435 87.7034 33.1833C92.4079 29.239 103.134 20.4112 107.212 8.57812C100.06 17.6574 91.604 22.8529 86.5733 25.7966Z" fill="#FC3D21"/>
<path d="M46.9237 57.3294C45.9984 56.167 44.7188 54.6101 43.758 53.4028C42.4732 51.7886 41.2845 50.1576 40.1951 48.5287C39.8397 48.6174 39.4853 48.7061 39.1308 48.7948C40.446 50.8432 41.9065 52.8884 43.4977 54.8877C44.6603 56.3486 45.7172 57.5246 46.2588 58.256C46.3685 58.4042 46.586 58.7319 46.8798 59.168C47.2185 58.9385 47.5604 58.7068 47.9053 58.4731C47.5718 58.111 47.2425 57.7301 46.9237 57.3294ZM53.6773 63.4484C52.9173 62.7305 51.0741 61.5315 49.1557 59.7326C48.7323 60.0227 48.3047 60.3169 47.8761 60.6133C49.1149 62.3559 50.8023 64.496 52.1238 65.12C54.1143 66.0613 54.6506 64.3687 53.6773 63.4484ZM63.7377 37.3719C52.7688 23.5917 39.3692 16.0213 33.592 20.6032C29.1049 24.1614 30.947 34.5607 37.1319 45.4849C37.4518 45.3753 37.7686 45.2679 38.0823 45.1614C31.8398 34.518 30.1316 24.6268 34.3636 21.27C39.6818 17.0522 52.5231 24.6519 63.1742 38.0324C65.3791 40.8018 67.3173 43.5816 68.9587 46.2915C75.244 56.6741 77.1729 66.0634 72.83 69.896C71.5013 71.0689 67.4407 71.5291 62.1214 69.1395C62.0472 69.2324 62.1664 69.4839 62.2594 69.5454C66.8511 71.3882 71.2493 72.0905 73.4699 70.3301C78.8059 66.0978 74.7066 51.152 63.7377 37.3719Z" fill="white"/>
<path d="M16.6953 39.0059H23.7208L29.6171 48.9919C29.6171 48.9919 29.6171 41.7606 29.6171 41.1972C29.6171 40.3206 28.5037 39.178 28.1117 39.0059C28.5821 39.0059 32.6908 39.0059 32.973 39.0059C32.6751 39.0841 31.7185 40.2424 31.7185 41.1972C31.7185 41.6667 31.7185 52.1537 31.7185 52.6546C31.7185 53.3589 32.7378 54.3293 33.2239 54.705H26.4494L20.4589 44.6719C20.4589 44.6719 20.4589 52.1537 20.4589 52.5606C20.4589 53.3433 21.2274 54.0946 22.0271 54.7363H16.8521C17.5892 54.4233 18.2949 53.4372 18.3576 52.6546C18.4203 51.8719 18.3576 41.7763 18.3576 41.338C18.3576 40.3833 17.4324 39.6006 16.6953 39.0059Z" fill="white"/>
<path d="M80.959 54.705H90.3054C89.7879 54.5798 89.2076 53.9693 88.894 53.1554C88.5804 52.3415 83.6249 39.0059 83.6249 39.0059H80.0714C79.0636 39.73 77.9837 40.4939 76.8305 41.2984C76.8274 41.3276 76.8242 41.3568 76.819 41.385C76.6643 42.3241 73.8834 52.377 73.714 52.8737C73.4788 53.5624 72.2713 54.3293 71.7852 54.7363H76.819C76.3172 54.1728 75.9095 53.625 76.0036 52.9989C76.0977 52.3728 76.3799 51.1206 76.3799 51.1206H81.5863C81.8215 51.7467 81.9971 52.3092 82.0881 52.8424C82.1979 53.4841 81.5392 54.2041 80.959 54.705ZM76.8504 49.1172L78.6067 43.3885L80.9276 49.1172H76.8504ZM76.059 39.5777C76.3172 39.3878 76.5765 39.1968 76.8347 39.0059H75.4704C75.6063 39.1311 75.8311 39.3283 76.059 39.5777Z" fill="white"/>
<path d="M40.3122 52.9989C40.4062 52.3728 40.6885 51.1206 40.6885 51.1206H45.8949C46.1301 51.7467 46.3058 52.3092 46.3967 52.8424C46.5065 53.4841 45.8478 54.2041 45.2676 54.705H53.4964C53.6678 54.5902 53.8383 54.4754 54.0087 54.3617C53.6898 54.0799 53.396 53.6573 53.2026 53.1554C52.889 52.3415 47.9335 39.0059 47.9335 39.0059H39.779C40.171 39.3659 41.3001 40.3363 41.1276 41.385C40.9739 42.3241 38.192 52.377 38.0226 52.8737C37.7874 53.5624 36.5799 54.3293 36.0938 54.7363H41.1276C40.6258 54.1728 40.2181 53.625 40.3122 52.9989ZM42.9153 43.3885L45.2363 49.1172H41.159L42.9153 43.3885Z" fill="white"/>
<path d="M68.7357 46.799C67.2009 47.8195 65.5815 48.8849 63.8753 49.9973C64.6406 50.3677 65.2501 50.8331 65.3087 51.4341C65.4174 52.5632 63.1446 53.1089 61.0902 52.8741C60.6794 52.8272 60.2758 52.7197 59.8911 52.5757C59.4646 52.8501 59.0338 53.1267 58.5968 53.4063C58.1525 53.6912 57.6131 54.0418 56.9973 54.4467V56.0672C57.405 55.2689 58.2968 54.5541 58.9889 54.5176C59.2868 54.502 60.3218 55.4567 64.5873 55.222C66.6573 55.1082 70.6562 52.9054 70.5934 50.3698C70.5558 48.8714 69.7717 47.7027 68.7357 46.799ZM56.9962 50.7141V52.3649C57.3737 52.1134 57.7458 51.8661 58.1107 51.6251C57.5367 51.2265 57.1301 50.854 56.9962 50.7141ZM67.2772 45.7628C66.88 45.528 66.4775 45.3225 66.0917 45.1409C64.0844 44.2018 61.9831 44.0296 61.544 42.7618C61.2345 41.8675 62.1085 41.04 64.2412 41.0714C66.374 41.1027 68.3499 42.3705 68.8831 42.8244V38.7861C68.7262 38.9427 68.0383 39.7305 67.409 39.6C66.2015 39.3496 64.1472 39.023 61.7949 39.0366C59.0976 39.0522 56.7767 41.1329 56.6983 43.7635C56.5885 47.4418 59.5367 48.4435 61.199 49.0227C61.3704 49.0821 61.5659 49.1458 61.7782 49.2136C63.3725 48.1785 64.6333 47.3813 65.3714 46.9566C65.8669 46.6717 66.5162 46.2627 67.2772 45.7628Z" fill="white"/>
</svg>
